<svg version="1.1" id="Layer_1" xmlns="http://www.w3.org/2000/svg" xmlns:xlink="http://www.w3.org/1999/xlink" x="0" y="0" viewBox="0 0 74 28" xml:space="preserve"><g id="Layer_2"><path d="M70.3 13.9c0-1.8-1.5-3.3-3.3-3.3s-3.3 1.5-3.3 3.3v6.7H60v-6.7c0-3.9 3.1-7 7-7s7 3.1 7 7v6.7h-3.6c-.1 0-.1-5.8-.1-6.7zm-25.9 0c0-3.9 3.1-7 7-7s7 3.1 7 7-3.1 7-7 7c-3.8 0-7-3.1-7-7zm7 3.3c1.9 0 3.4-1.5 3.4-3.4s-1.5-3.4-3.4-3.4-3.4 1.5-3.4 3.4c.1 1.9 1.6 3.5 3.4 3.4 0 .1 0 .1 0 0zm-15.6-5.8c-.5-.4-.4-1 .5-1.2 1.6-.3 3.3 0 4.7.7l1.8-2.4c-1.4-1-3.1-1.6-4.8-1.6 0 0-4-.5-5.7 2.6-.8 1.7-.2 3.7 1.4 4.7 1.7 1.1 4.8 1.5 5.7 2 .9.5.5 1.3-.6 1.5-1.9.2-3.8-.3-5.3-1.3l-1.8 2.4c1.5 1.1 3.3 1.9 5.1 2.1 0 0 3.8.7 5.9-2 1.2-1.6 1-3.9-.6-5.1-.2-.2-.5-.3-.7-.4-1.9-1-4.7-1.4-5.6-2zm-17.3 12c1.1.7 2.3 1.2 3.5 1.3 4 .1 4.3-4.1 4.3-5.1-.9.8-2.1 1.3-3.3 1.3-3.8 0-6.9-3-7-6.8v-7h3.7V14c0 1.8 1.5 3.3 3.3 3.3s3.3-1.5 3.3-3.3V7.1H30V14c0 6.1.3 12.3-5.6 13.8-2.7.6-5.6-.1-7.8-1.9l1.9-2.5zM14.1 0h-3.7v6.8H7c-3.9 0-7 3.1-7 7s3.1 7 7 7 7-3.1 7-7v-7l.1-6.8zm-3.7 13.9c0 1.8-1.5 3.3-3.4 3.3-1.8 0-3.3-1.5-3.3-3.4 0-1.8 1.5-3.3 3.3-3.3h3.3l.1 3.4z" fill="#161616" id="Layer_1-2"/></g></svg>