<svg xmlns="http://www.w3.org/2000/svg" fill="#fff" viewBox="0 0 463.92 479.8">
    <path fill="white"
          d="M0,48.32C-.59,28.19,13.94,4.53,41.3.54c27.05-3.93,49.14,14,54.21,37.78.38,1.78,1.07,3.65.85,5.38-.63,5.06,1.8,8.33,5.27,11.6,7.62,7.18,15,14.66,22.33,22.12a8.42,8.42,0,0,0,6.13,2.64c15.44.61,30.87,1.37,46.3,2.12q19.91,1,39.81,2l37.82,2,38.81,2q28.86,1.5,57.72,3c18.75,1,37.49,1.94,56.23,3,9.45.52,18.9,1.16,28.34,1.82,15.22,1.05,28.24,14.88,28.77,30.08.27,7.48-1.83,14.49-3.4,21.59-9.46,43-19.1,85.92-28.63,128.88-1.47,6.61-3.9,12.65-8.67,17.65A31.07,31.07,0,0,1,404.6,304c-12.33,1.74-24.67,3.35-37,5-10.86,1.44-21.72,2.84-32.58,4.28q-21,2.79-41.94,5.63c-14.14,1.9-28.28,3.83-42.43,5.69-14,1.83-28,3.55-42,5.38-13.82,1.82-27.63,3.77-41.45,5.56-16,2.08-28-1.4-36.81-15a36.26,36.26,0,0,1-4.32-11.05q-14.61-60.28-29-120.63C92.54,169.76,88,150.7,83.3,131.67a12.35,12.35,0,0,0-2.87-5.53C71.49,117,62.33,108,53.36,98.87a7.77,7.77,0,0,0-6.19-2.44C27.13,96.73,5.64,82,.74,57.25A73.48,73.48,0,0,1,0,48.32Z"></path>
    <path fill="white"
          d="M431.9,423.79c.45,29.8-24.77,56-56.15,56-30.5,0-56.42-25.54-56.26-56.52.16-31.21,26.37-56,56.27-56C406.54,367.27,432.6,393.07,431.9,423.79Z"></path>
    <path fill="white"
          d="M167.72,479.68c-29.56.41-55.9-24.88-55.83-56.33.06-31.09,26.53-56.6,57.2-56.08s55.68,26.65,55.35,57C224.11,453.68,199.3,480.43,167.72,479.68Z"></path>
</svg>
