<?xml version="1.0" encoding="UTF-8"?>
<svg xmlns="http://www.w3.org/2000/svg" viewBox="0 0 503.85 504.09">
  <defs>
    <style>.cls-1{fill:#382E2C;}</style>
  </defs>
  <g id="Layer_2" data-name="Layer 2">
    <g id="Layer_1-2" data-name="Layer 1">
      <path class="cls-1" d="M383.43,240.49c-65.91.53-120.34-54.28-120-120.79C263.81,53.83,318.46-.68,385.39.24c65.22.9,118.82,54.82,118.46,120.92C503.5,186.41,449.87,241.22,383.43,240.49ZM395.34,88.92c0-7.31.05-14.62,0-21.93a23.31,23.31,0,0,0-.74-5.89,11.27,11.27,0,0,0-19-5.05c-2.7,2.65-3.56,6-3.57,9.53q-.06,26.67,0,53.34a14.25,14.25,0,0,0,4.57,10.63c11.6,11.43,23.05,23,34.59,34.5a22.65,22.65,0,0,0,4.6,3.77,11.26,11.26,0,0,0,16.7-9.35c.27-4.21-1.53-7.29-4.38-10.12-9.92-9.83-19.71-19.77-29.67-29.56a9.3,9.3,0,0,1-3.12-7.44C395.46,103.88,395.34,96.4,395.34,88.92Z"></path>
      <path class="cls-1" d="M74.4,423.55h61.37c5,0,4.8-.07,6.25-4.87,8.28-27.46,26.29-44.68,54.59-50,34.49-6.45,68.11,15.44,77.39,49.94,1.31,4.88,1.26,4.91,6.2,4.91q19.95,0,39.92,0a25.48,25.48,0,0,0,4.94-.41c3.48-.72,5.39-3.08,6.14-6.45a11.37,11.37,0,0,0,.24-2.47c0-22.13.44-44.26-.13-66.37-.48-19-9.81-33.11-26.61-42.09q-19.35-10.33-38.86-20.4a25.27,25.27,0,0,1-10.1-9.32q-55-87.37-110.11-174.7C136.41,86.69,127.3,72,118,57.43c-10.65-16.64-25.57-27.29-45.09-31A84.86,84.86,0,0,0,58.05,25c-14.81-.18-29.61,0-44.41-.12a18,18,0,0,1-6.79-1.12C1.59,21.49-1,15.53.33,9.49a11.61,11.61,0,0,1,11.13-9C30.58.37,49.81-.71,68.82.8c28.18,2.24,51,15.56,67,39.12,10.56,15.53,20.27,31.63,30.3,47.52q29.18,46.17,58.29,92.39,24.35,38.61,48.62,77.26a22.45,22.45,0,0,0,9.26,8.62c12.46,6.3,25,12.48,37.06,19.51,23.49,13.73,36,34.51,36.57,61.77.48,22.94-.14,45.91.18,68.86.25,17.22-15,32.68-32.37,32.3-14.47-.32-28.95-.07-43.42,0-5,0-5,0-6.26,4.82-7,27.07-30.63,47.91-58.49,50.79-34.33,3.54-64.33-17.91-73.41-50.19-1.52-5.4-1.47-5.43-7.3-5.43H16.57c-1.5,0-3,0-4.49,0-7.35-.25-12-5.14-11.94-12.47.07-7,4.74-11.95,11.88-12,19.46-.11,38.93-.05,58.39-.05Zm133.67-31.32c-24.5.81-43.4,18.62-43.47,43.51-.06,24.38,18.23,43.15,42.83,43.46,25.15.31,43.91-18.67,44-43.32C251.45,411.5,233.06,393.14,208.07,392.23Z"></path>
      <path class="cls-1" d="M120.47,176.37c0,18.12-.06,36.23,0,54.35.05,10.11,4,18.37,12.34,24.31,5.07,3.62,10.9,4.78,17,4.81,16.12.06,32.24,0,48.36,0a24.12,24.12,0,0,1,5.45.38c5.67,1.35,9.14,6.87,8.61,13.42a11.63,11.63,0,0,1-10.66,10.66c-1,.09-2,.06-3,.06-17.12,0-34.24,0-51.36,0-30,.09-51.42-26.16-51.32-51.09q.21-56.08-.08-112.19c0-7.64,6-13.35,12.58-13,7,.36,11.79,4.79,12,11.91.08,2.49,0,5,0,7.48Q120.49,151.95,120.47,176.37Z"></path>
    </g>
  </g>
</svg>
