<?xml version="1.0" encoding="UTF-8"?>
<svg xmlns="http://www.w3.org/2000/svg" viewBox="0 0 479.98 479.65">
  <defs>
    <style>.cls-1{fill:#382E2C;}</style>
  </defs>
  <g id="Layer_2" data-name="Layer 2">
    <g id="Layer_1-2" data-name="Layer 1">
      <path class="cls-1" d="M336.58,453.33c-5.67-1.4-13.76-3.21-21.73-5.44a36,36,0,0,0-20.14-.31,28.26,28.26,0,0,0-13.18,7.68c-3.87,4.11-7.93,8.06-12,12-17,16.55-42.07,16.52-59.16-.07-4-3.94-8-8-12-12-8.46-8.22-18.64-10.43-29.91-8.08-7.79,1.62-15.42,4.14-23.27,5.33-11.44,1.74-21.65-2-30.57-9.13a41.26,41.26,0,0,1-14.48-22.72c-1.33-5.31-2.61-10.65-4.21-15.89-3.24-10.62-10.29-17.67-20.85-21-5.38-1.7-10.91-2.89-16.36-4.35-18.56-5-30.83-19.48-32.22-38.58a41.63,41.63,0,0,1,1.27-11.33c1.17-5.51,2.78-10.94,4.21-16.4,3.29-12.58.94-23.65-8.63-32.88q-5.93-5.71-11.62-11.66a41.48,41.48,0,0,1-.1-57.71c3.79-4,7.64-7.88,11.63-11.65C33,190,35.2,178.89,32.09,166.32c-1.67-6.77-3.92-13.45-4.92-20.31C24.78,129.76,31,116.82,43.71,106.8c6.62-5.22,14.72-6.73,22.53-9,2.39-.69,4.82-1.26,7.22-1.9Q91.39,91.1,96.23,73.2c1.46-5.45,2.77-11,4.49-16.33,5.61-17.57,17.7-27.43,35.9-30.26,5.63-.87,10.9.22,16.22,1.39,4.54,1,9,2.42,13.48,3.58,12.75,3.29,24,.91,33.33-8.81,3.8-3.95,7.69-7.83,11.68-11.6,15.85-15,41.74-14.89,57.53.16,4.46,4.25,8.65,8.76,13.1,13,8.39,8,18.46,10.08,29.53,7.76,7.63-1.61,15.11-4,22.77-5.32,11.51-2,21.64,1.83,30.67,8.77a38.84,38.84,0,0,1,14.25,21.1c1.56,5.77,3,11.57,4.72,17.3,3.32,11.2,10.54,18.6,21.87,21.78,5.75,1.62,11.56,3,17.29,4.75,17.61,5.27,29.44,20.08,30.42,38.39a41.51,41.51,0,0,1-1.28,10.83c-1.18,5.52-2.77,10.95-4.21,16.41-3.3,12.56-1,23.66,8.56,32.89,3.84,3.69,7.59,7.47,11.28,11.3C483.94,227,484,252,468,268.74c-4,4.2-8.2,8.26-12.32,12.37-8.55,8.52-10.71,18.8-8.17,30.28,1.69,7.61,4.18,15.09,5.29,22.77,2.12,14.62-3.34,26.68-14.23,36.38A41.75,41.75,0,0,1,421,379.48c-5.14,1.34-10.3,2.61-15.4,4.11-11.06,3.25-18.29,10.49-21.62,21.49-2.07,6.83-3.5,13.87-5.84,20.6C372.49,441.93,357.56,452.56,336.58,453.33Zm-96.94-7.05c3.58,0,4.94-.54,7.53-3.07,4.17-4.07,8.12-8.36,12.39-12.3,15.37-14.15,33.54-19.85,54.16-16.86,7.18,1,14.18,3.42,21.25,5.26s11.19-.32,13.18-7.39c1.3-4.63,2.27-9.36,3.6-14,7-24.35,22.69-40,47.22-46.7,4.49-1.22,9-2.33,13.47-3.63,7.17-2.09,9.14-5.84,7.18-13.19-1.5-5.62-3-11.24-4.36-16.88-4.62-18.79-.6-36.07,10.38-51.53,4.76-6.71,11.22-12.21,17-18.2s5.94-10.3.12-16.21c-4.2-4.27-8.68-8.28-12.64-12.76-13.33-15-18.83-32.65-15.76-52.54,1.16-7.51,3.62-14.82,5.5-22.22,1.64-6.42-.45-10.35-6.74-12.2-5.89-1.74-11.91-3.06-17.76-4.93-20.48-6.56-34.56-20-41.86-40.21-2.37-6.54-3.76-13.42-5.72-20.11-1.81-6.17-6-8.47-12.2-6.88-2.57.66-5.11,1.44-7.67,2.14-11.1,3-22.17,5.7-33.86,3.35-13.33-2.68-25.44-7.58-35.14-17.46q-5.41-5.52-10.92-11c-5.71-5.62-10.22-5.65-15.87-.09-4.39,4.31-8.5,9-13.13,13C204.26,62.49,187,67.88,167.75,65.37c-7.68-1-15.18-3.49-22.73-5.44-7-1.79-11.26.49-13.22,7.43-1.26,4.47-2.24,9-3.48,13.5q-10.12,36.39-46.4,46.94c-4.94,1.43-10,2.59-14.91,4-6.31,1.83-8.58,5.82-7,12.1,1.37,5.3,2.87,10.57,4.27,15.87,5.08,19.22,1.45,37-9.7,53.1-4.31,6.21-10.05,11.51-15.56,16.78-6.58,6.29-9.8,10.94-.13,19.74A148.87,148.87,0,0,1,49.51,260c13.39,15,19.08,32.49,16.13,52.42-1.07,7.18-3.27,14.22-5.13,21.27-2.23,8.45-.32,11.93,8.2,14.31,6.08,1.69,12.3,3,18.23,5.08,19.33,6.87,32.58,20.11,39.52,39.39,2.36,6.54,3.75,13.43,5.72,20.12,1.82,6.19,6,8.52,12.16,6.94,4.66-1.2,9.38-2.24,14-3.72a57.1,57.1,0,0,1,29-1.66c12.49,2.44,23.75,7.42,32.92,16.52,4.12,4.11,8.27,8.19,12.34,12.35C234.67,445.16,237,446.46,239.64,446.28Z"></path>
      <path class="cls-1" d="M207.88,319.74c-5.17.2-9-2.29-12.5-5.57s-6.61-6.55-9.9-9.85q-25.39-25.4-50.81-50.78c-4.14-4.13-7.18-8.62-6.78-14.88a15.58,15.58,0,0,1,8.79-13.55,15.4,15.4,0,0,1,16.14.68,36.68,36.68,0,0,1,6,5.18q22.27,22.18,44.47,44.43c.82.83,1.69,1.6,2.46,2.47,1.59,1.8,3.06,1.63,4.59-.08.88-1,1.88-1.89,2.82-2.83q54.5-54.51,109-109c3.92-3.92,8.19-6.59,14-6.45,12,.28,19.71,12.9,14.14,23.54a26.75,26.75,0,0,1-4.79,6.32q-61.86,62-123.8,123.85C217.87,317,213.61,320.11,207.88,319.74Z"></path>
    </g>
  </g>
</svg>
