<?xml version="1.0" encoding="UTF-8"?>
<svg xmlns="http://www.w3.org/2000/svg" viewBox="0 0 406.5 385.51">
  <defs>
    <style>.cls-1{fill:#382E2C;}</style>
  </defs>
  <g id="Layer_2" data-name="Layer 2">
    <g id="Layer_1-2" data-name="Layer 1">
      <path class="cls-1" d="M207,385.37c-43.82,0-87.64.39-131.46-.13-31.92-.38-55-15.67-69-44.41a65.5,65.5,0,0,1-6.46-29c0-65.14-.07-130.29,0-195.44.07-36,28.4-68.33,64.16-72.29,14.17-1.56,28.59-1,42.9-1a11,11,0,0,1,11.1,11.25,11.22,11.22,0,0,1-11.42,11c-10.66.18-21.32,0-32,.07-23.74.14-44.07,15.31-50.45,38.1a62,62,0,0,0-1.92,16.26c-.15,43.15-.08,86.31-.08,129.46,0,20.33.3,40.66-.07,61-.42,23,15.71,45.13,39.32,51a67,67,0,0,0,15.8,1.74q96.21.16,192.44.07c23.66,0,47.32-.06,71,0a20.87,20.87,0,0,0,17-7.91,17.4,17.4,0,0,0,4.39-11.41c0-3.5-.12-7,.09-10.5a24.51,24.51,0,0,1,1.23-6.82,11.07,11.07,0,0,1,11.11-6.9c4.82.55,9.53,4.19,9.67,8.72.28,8.93,1.34,17.93-1.56,26.76-6,18.27-22.1,30.32-41.34,30.39-31.66.1-63.32,0-95,0H207Z"></path>
      <path class="cls-1" d="M132.82,85.88H326.44c5.66,0,11.33,0,17,0,21.86.3,40.75,19.1,41.13,41,.1,5.33.11,10.67,0,16a10.93,10.93,0,0,1-21.74,1.89c-.72-5.07-.5-10.29-.53-15.45,0-3.73-.51-7.31-2.44-10.57-3.95-6.65-9.66-10.46-17.55-10.49q-22.5-.07-45,0-108.75,0-217.49,0a31.36,31.36,0,0,1-8.38-1,9.75,9.75,0,0,1-7.31-8.62c-.56-4.46.77-8.36,4.68-10.83A44,44,0,0,1,76,84.4q77.71-31,155.45-62,24.82-9.89,49.67-19.75c18.23-7.18,35.85.36,43.52,18.48q8.08,19.1,16.34,38.11c1.31,3,2.05,6,1.12,9.2a11.31,11.31,0,0,1-9.4,7.9c-4.83.49-8.87-1.5-11.05-6.07-2.93-6.16-5.52-12.48-8.21-18.76-3.16-7.34-6.25-14.71-9.42-22-2.76-6.42-7.57-8.7-14.15-6.2C277,28.22,264.18,33.39,251.34,38.51Q194.27,61.24,137.2,84C136.12,84.44,135.06,84.92,132.82,85.88Z"></path>
      <path class="cls-1" d="M325.22,300.2c-15.32,0-30.65.13-46,0-14.51-.16-28-3.92-39.71-12.78-14.17-10.71-22.66-24.82-25.6-42.48-5.07-30.51,14.71-65.09,51-72.53A70.88,70.88,0,0,1,278.8,171q46.72-.16,93.45,0c19.62,0,33.77,13.81,34,33.56q.42,31.23,0,62.46c-.28,19.17-14.73,33-34.08,33.17-15.65.12-31.31,0-47,0Zm-1.43-106.83h0c-15.15,0-30.3,0-45.44,0a51.13,51.13,0,0,0-9.4.94c-26.17,5.09-41.09,34.39-29.68,58.45,8,16.95,22,24.9,40.42,25,30.46.2,60.93.08,91.39.05,8.85,0,12.9-4,12.92-12.79q.08-29.46,0-58.93c0-8.94-3.88-12.76-12.76-12.77Q347.51,193.33,323.79,193.37Z"></path>
      <path class="cls-1" d="M277.35,219c8.81-.09,16.76,7.56,17,16.34.23,8.16-8.41,16.91-16.68,16.87-8.64,0-16.57-8-16.61-16.79C261,227,268.85,219.1,277.35,219Z"></path>
    </g>
  </g>
</svg>
