<?xml version="1.0" encoding="UTF-8"?>
<svg xmlns="http://www.w3.org/2000/svg" viewBox="0 0 504.44 503.77">
  <defs>
    <style>.cls-1{fill:#382E2C;}</style>
  </defs>
  <g id="Layer_2" data-name="Layer 2">
    <g id="Layer_1-2" data-name="Layer 1">
      <path class="cls-1" d="M504.44,422.48c-2,5.84-4.5,11.43-9.07,15.82-6.25,6-13.56,9.45-22.37,9.43-14.64,0-29.27,0-43.91,0-5.1,0-5.1,0-6.33,4.75-7.05,27.21-30.43,47.9-58.41,50.87a68.05,68.05,0,0,1-74.75-55.22c-7.25-40.27,20.32-75.65,58.22-80.42,35.48-4.47,66,17.81,74.92,50.63,1.3,4.8,1.25,4.83,6.27,4.84,13.47,0,26.95,0,40.42,0,7.94,0,10.74-2.86,10.75-10.9,0-20.79.13-41.58,0-62.37-.15-20.27-9.26-35.28-27.22-44.79-12.78-6.77-25.55-13.56-38.42-20.17a26,26,0,0,1-10.33-9.77q-36.49-58.06-73.12-116.06L267.22,57.83c-9.61-15.25-22.77-26-40.36-30.5a85.19,85.19,0,0,0-20.66-2.66c-62.87-.2-125.75-.12-188.62-.12-1.67,0-3.33,0-5,0a11.89,11.89,0,0,1-11.2-9c-1.32-5.83.91-11.69,6-14A18.69,18.69,0,0,1,15,.07C39.16,0,63.28,0,87.4,0Q148,0,208.66,0c26.71,0,49.26,9.75,67.57,29.08a93.08,93.08,0,0,1,10.86,14.25Q327.85,107.58,368.35,172q27.4,43.46,54.77,86.94c1.9,3,4.64,4.66,7.58,6.19,10.89,5.71,21.77,11.46,32.73,17.05,12.41,6.34,22.74,14.94,30.12,26.88a74.66,74.66,0,0,1,10.1,25.33,16.45,16.45,0,0,0,.79,2.3Zm-147.87-30.6c-24.88.93-43.36,19.28-43.24,43.73.13,24.84,19,43.34,43.56,43.24,25-.1,43.36-19.17,43.24-43.56C400,410.28,380.93,392.57,356.57,391.88Z"></path>
      <path class="cls-1" d="M116.89,503.62q-46.38,0-92.78,0C13,503.57,3.5,496.47.8,486a32.87,32.87,0,0,1-.73-9.81c.59-11.6,1.38-23.2,2.19-34.79.85-12.25,1.83-24.5,2.74-36.74.38-5.14.77-10.27,1.11-15.4,1.08-16.57,2.08-33.14,3.22-49.7.88-12.92,1.83-25.83,2.93-38.73,1-11.19,11.52-21.05,22.76-21.36,5.82-.15,11.64,0,17.46-.05s5.38.48,5.81-5.21c.62-8.27.86-16.67,2.59-24.72,5.11-23.7,20-38.87,43.36-44.45,33.19-7.92,65.14,14.15,69.83,48.19.82,5.91.86,11.92,1.26,17.88.1,1.5.18,3,.29,4.48.19,2.77,1.42,4,4.46,3.9,5.81-.23,11.65.19,17.46-.11,12.31-.65,24.24,10.61,24.83,23.6.76,16.41,2.42,32.77,3.6,49.16.83,11.59,1.45,23.2,2.26,34.79.83,11.75,1.78,23.5,2.66,35.25q.6,7.95,1.15,15.89c.91,13.42,2.19,26.82,2.58,40.26.45,15.12-11.36,25.24-23.45,25.23l-47.39,0Zm-.06-224.16c10.14,0,20.28,0,30.42,0,3.54,0,3.71-.14,3.59-3.69-.21-6-.34-12-1.07-17.89-2-16.44-14.34-29.5-32.76-29.48-16.45,0-28.08,10.66-31.29,24.52-1.67,7.2-1.73,14.8-2.26,22.23-.31,4.24-.08,4.31,4.44,4.32C97.54,279.48,107.19,279.46,116.83,279.46Zm-46,.6h-4c-1.33,0-2.66,0-4,0-3.92.12-4,.24-4.25,4.32-.24,4.29-.39,8.59-.82,12.87-.7,7.14,3.6,12.95,10.49,13.86,6.31.84,12-4,12.65-11.18.53-5.59.69-11.22,1.07-16.83.13-2-.49-3.14-2.74-3.06C76.42,280.14,73.6,280.06,70.78,280.06Zm93.07,0c-2.82,0-5.64.11-8.45,0-2.52-.12-3.12,1.11-3,3.33.39,5.45.68,10.9,1,16.35a11.84,11.84,0,0,0,.32,2c1.42,6.11,6.54,10.1,12.15,9.49A11.84,11.84,0,0,0,176.71,299c-.14-5.28-.68-10.56-.92-15.84-.1-2.4-1.3-3.14-3.49-3.08C169.48,280.12,166.67,280.06,163.85,280.06Z"></path>
      <path class="cls-1" d="M269.2,176c0,18.11-.06,36.23,0,54.34,0,10.11,4,18.39,12.29,24.35,5.06,3.62,10.9,4.8,17,4.83,16.12.07,32.24,0,48.37,0a24,24,0,0,1,5.44.36c5.71,1.34,9.18,6.84,8.67,13.38A11.64,11.64,0,0,1,350.34,284c-1,.09-2,.07-3,.07-17.45,0-34.9,0-52.35,0-23.79-.11-44-18-49.17-40.64A48.05,48.05,0,0,1,244.72,233q-.12-55.84,0-111.69a17.47,17.47,0,0,1,1.87-8c2.62-4.77,8.35-6.6,13.93-5.14a11.77,11.77,0,0,1,8.61,11.48c.1,13.62.05,27.25.05,40.88C269.21,165.65,269.2,170.8,269.2,176Z"></path>
    </g>
  </g>
</svg>
